<mxfile host="app.diagrams.net" modified="2023-05-29T03:58:45.835Z" agent="Mozilla/5.0 (X11; Linux x86_64) AppleWebKit/537.36 (KHTML, like Gecko) Chrome/113.0.0.0 Safari/537.36" version="21.3.5" etag="4oxsHaaDtgYPV6jAyVcb" type="github">
  <diagram name="Page-1" id="Enl20TIlC3QIB0Cx4e7f">
    <mxGraphModel>
      <root>
        <mxCell id="0" />
        <mxCell id="1" parent="0" />
      </root>
    </mxGraphModel>
  </diagram>
</mxfile>
